<svg width="62" height="62" viewBox="0 0 62 62" fill="none" xmlns="http://www.w3.org/2000/svg">
<path d="M51.5633 34.0076C51.4665 33.9108 51.3517 33.8341 51.2253 33.7817C51.0989 33.7293 50.9634 33.7024 50.8266 33.7024C50.6898 33.7024 50.5543 33.7293 50.4279 33.7817C50.3015 33.8341 50.1866 33.9108 50.0899 34.0076L48.8695 35.228L47.8278 34.1862V29.9672C47.8277 27.3327 46.7811 24.8061 44.9182 22.9432C43.0553 21.0803 40.5287 20.0338 37.8942 20.0338H37.8421L35.8849 18.0766C33.915 16.096 31.2666 14.9371 28.475 14.8342L26.7711 13.1303L27.9916 11.91C28.0883 11.8132 28.1651 11.6984 28.2174 11.572C28.2698 11.4456 28.2967 11.3101 28.2967 11.1733C28.2967 11.0365 28.2698 10.901 28.2174 10.7747C28.1651 10.6483 28.0883 10.5334 27.9916 10.4367L17.6785 0.123535L16.2054 1.59641L25.7816 11.1724L11.0493 25.9047L1.4734 16.3291L0 17.8019L10.3125 28.115C10.4092 28.2118 10.5241 28.2885 10.6505 28.3409C10.7769 28.3933 10.9124 28.4202 11.0492 28.4202C11.186 28.4202 11.3215 28.3933 11.4479 28.3409C11.5743 28.2885 11.6892 28.2118 11.7859 28.115L12.7969 27.1039L14.4923 28.7993V33.5764C14.4921 34.0765 14.6119 34.5692 14.8417 35.0134C15.0715 35.4575 15.4045 35.8399 15.8128 36.1286C16.2211 36.4172 16.6928 36.6037 17.1881 36.6722C17.6834 36.7407 18.1879 36.6893 18.6593 36.5223V37.7434C18.659 38.2434 18.7788 38.7362 19.0086 39.1803C19.2384 39.6244 19.5714 40.0069 19.9797 40.2955C20.388 40.5842 20.8597 40.7706 21.355 40.8391C21.8503 40.9076 22.3548 40.8562 22.8262 40.6892V41.9103C22.8259 42.4103 22.9458 42.9031 23.1755 43.3472C23.4053 43.7913 23.7384 44.1738 24.1467 44.4624C24.555 44.7511 25.0266 44.9375 25.5219 45.006C26.0172 45.0745 26.5218 45.0232 26.9931 44.8562V46.0772C26.9927 46.71 27.1845 47.328 27.5432 47.8494C27.9019 48.3707 28.4104 48.7708 29.0015 48.9967C29.5927 49.2226 30.2384 49.2636 30.8534 49.1143C31.4683 48.965 32.0234 48.6325 32.4451 48.1607H33.8538L34.8956 49.2024L33.8844 50.2135C33.7877 50.3103 33.7109 50.4251 33.6586 50.5515C33.6062 50.6779 33.5793 50.8134 33.5793 50.9502C33.5793 51.087 33.6062 51.2225 33.6586 51.3488C33.7109 51.4752 33.7877 51.5901 33.8844 51.6868L44.1976 62L45.6705 60.5257L36.0943 50.9497L50.827 36.2173L60.4029 45.7933L61.8763 44.3201L51.5633 34.0076ZM30.1183 47.1186C29.8421 47.1182 29.5773 47.0084 29.382 46.8131C29.1867 46.6178 29.0769 46.353 29.0766 46.0768V37.743H26.9931V41.9099C26.9931 42.1862 26.8834 42.4511 26.688 42.6465C26.4926 42.8419 26.2277 42.9516 25.9514 42.9516C25.6751 42.9516 25.4101 42.8419 25.2148 42.6465C25.0194 42.4511 24.9096 42.1862 24.9096 41.9099V33.576H22.8262V37.743C22.8262 38.0192 22.7164 38.2842 22.5211 38.4796C22.3257 38.6749 22.0607 38.7847 21.7844 38.7847C21.5082 38.7847 21.2432 38.6749 21.0478 38.4796C20.8525 38.2842 20.7427 38.0192 20.7427 37.743V30.4508H18.6593V33.576C18.6593 33.8523 18.5495 34.1173 18.3541 34.3126C18.1588 34.508 17.8938 34.6178 17.6175 34.6178C17.3412 34.6178 17.0763 34.508 16.8809 34.3126C16.6855 34.1173 16.5758 33.8523 16.5758 33.576V28.3674C16.5758 28.2306 16.5488 28.0951 16.4965 27.9687C16.4442 27.8423 16.3674 27.7275 16.2707 27.6307L14.2702 25.6302L25.2977 14.6027L27.2982 16.6026C27.3949 16.6993 27.5098 16.7761 27.6362 16.8284C27.7626 16.8808 27.898 16.9078 28.0348 16.9078C29.2196 16.9046 30.3932 17.1363 31.4878 17.5897C32.5823 18.0431 33.5761 18.7091 34.4115 19.5491L34.8954 20.033H24.9096C24.6334 20.033 24.3684 20.1427 24.173 20.3381C23.9777 20.5335 23.8679 20.7984 23.8679 21.0747C23.8707 22.7985 24.4389 24.4738 25.4852 25.8438C26.5315 27.2137 27.9983 28.2026 29.6606 28.6589L31.16 29.0678V46.0768C31.1597 46.353 31.0499 46.6178 30.8546 46.8131C30.6593 47.0084 30.3945 47.1182 30.1183 47.1186ZM35.0219 46.3819C34.9251 46.2852 34.8103 46.2085 34.6839 46.1561C34.5575 46.1038 34.422 46.0768 34.2852 46.0768H33.2435V29.6365L35.327 30.2047V30.4508C35.3285 31.8318 35.8778 33.1557 36.8543 34.1322C37.8307 35.1087 39.1547 35.6579 40.5356 35.6595C40.8119 35.6595 41.0769 35.5497 41.2722 35.3544C41.4676 35.159 41.5774 34.8941 41.5774 34.6178C41.5774 34.3415 41.4676 34.0765 41.2722 33.8811C41.0769 33.6858 40.8119 33.576 40.5356 33.576C39.7071 33.5751 38.9127 33.2455 38.3268 32.6597C37.7409 32.0738 37.4114 31.2794 37.4104 30.4508V29.4091C37.4104 29.1805 37.3352 28.9582 37.1964 28.7766C37.0575 28.5949 36.8628 28.464 36.6422 28.404L30.2082 26.6493C29.1589 26.3609 28.212 25.7828 27.4761 24.9812C26.7401 24.1797 26.2448 23.187 26.0468 22.117H37.8947C38.9256 22.1169 39.9464 22.32 40.8988 22.7144C41.8512 23.1089 42.7166 23.6872 43.4456 24.4161C44.1746 25.145 44.7528 26.0104 45.1473 26.9628C45.5418 27.9153 45.7448 28.9361 45.7448 29.967V34.6178C45.7448 34.894 45.8546 35.1589 46.0499 35.3543L47.3967 36.7012L36.3692 47.7286L35.0219 46.3819Z" fill="#CB8734"/>
<path d="M7.43893 27.085H5.35547V59.3787C5.35547 59.6549 5.46522 59.9199 5.66059 60.1153C5.85595 60.3106 6.12092 60.4204 6.3972 60.4204H37.6492V58.3369H7.43893V27.085Z" fill="#CB8734"/>
<path d="M55.3589 35.4189H57.4423V1.04173C57.4423 0.765448 57.3326 0.500479 57.1372 0.305116C56.9419 0.109754 56.6769 0 56.4006 0H22.0234V2.08346H55.3589V35.4189Z" fill="#CB8734"/>
<path d="M47.0251 5.20874C45.9949 5.20874 44.9879 5.51422 44.1313 6.08656C43.2747 6.65889 42.6071 7.47238 42.2129 8.42413C41.8187 9.37589 41.7155 10.4232 41.9165 11.4336C42.1175 12.4439 42.6135 13.372 43.342 14.1005C44.0704 14.8289 44.9985 15.325 46.0089 15.526C47.0193 15.727 48.0666 15.6238 49.0183 15.2296C49.9701 14.8353 50.7836 14.1677 51.3559 13.3112C51.9283 12.4546 52.2337 11.4476 52.2337 10.4174C52.2322 9.03646 51.6829 7.71251 50.7064 6.73603C49.73 5.75956 48.406 5.21029 47.0251 5.20874ZM47.0251 13.5426C46.407 13.5426 45.8027 13.3593 45.2888 13.0159C44.7749 12.6725 44.3743 12.1844 44.1378 11.6134C43.9012 11.0423 43.8393 10.4139 43.9599 9.80771C44.0805 9.20148 44.3782 8.64462 44.8152 8.20755C45.2523 7.77049 45.8091 7.47284 46.4154 7.35225C47.0216 7.23167 47.65 7.29356 48.221 7.5301C48.7921 7.76664 49.2802 8.1672 49.6236 8.68114C49.967 9.19507 50.1503 9.7993 50.1503 10.4174C50.1493 11.246 49.8197 12.0403 49.2339 12.6262C48.648 13.2121 47.8536 13.5416 47.0251 13.5426Z" fill="#CB8734"/>
<path d="M1.18848 32.2937H3.27194V53.1283H1.18848V32.2937Z" fill="#CB8734"/>
<path d="M59.5254 5.20874H61.6089V28.1269H59.5254V5.20874Z" fill="#CB8734"/>
</svg>
