<svg width="62" height="63" viewBox="0 0 62 63" fill="none" xmlns="http://www.w3.org/2000/svg">
<rect opacity="0.58" width="62" height="62" fill="white"/>
<path d="M39.6764 62.093C42.9902 62.1043 46.2718 61.4432 49.3228 60.1498C52.3738 58.8565 55.1307 56.9576 57.4268 54.5683C57.7571 54.2303 57.9933 53.8119 58.112 53.3545C58.2306 52.8971 58.2277 52.4166 58.1033 51.9607C57.986 51.513 57.7536 51.1038 57.4293 50.7737C57.105 50.4436 56.7 50.204 56.2545 50.0787C54.0962 49.4599 52.203 48.145 50.8694 46.3387C49.5359 44.5323 48.8369 42.3358 48.8812 40.091C48.9902 34.5794 53.5448 30.1251 59.0519 30.1251H59.1287L59.2295 30.1263C59.6997 30.1358 60.1642 30.023 60.5776 29.7988C60.991 29.5746 61.339 29.2467 61.5874 28.8475C61.8355 28.4549 61.9768 28.0045 61.9974 27.5406C62.018 27.0767 61.9171 26.6154 61.7049 26.2025C59.6392 22.1352 56.4876 18.7195 52.5993 16.334C48.7111 13.9484 44.2381 12.6863 39.6764 12.6875C33.1248 12.6875 26.8416 15.2901 22.2089 19.9228C17.5762 24.5554 14.9736 30.8387 14.9736 37.3903C14.9736 43.9419 17.5762 50.2251 22.2089 54.8578C26.8416 59.4904 33.1248 62.093 39.6764 62.093ZM23.5673 21.2729C26.1129 18.733 29.2235 16.8316 32.6448 15.7242C36.0661 14.6168 39.7008 14.3347 43.252 14.9012C46.8031 15.4676 50.1698 16.8664 53.0767 18.9832C55.9837 21.1001 58.3484 23.8748 59.9776 27.0806C60.0373 27.196 60.0657 27.325 60.0598 27.4548C60.0539 27.5846 60.014 27.7105 59.9441 27.82C59.8727 27.9359 59.7722 28.031 59.6524 28.0956C59.5327 28.1603 59.3981 28.1923 59.2621 28.1885L59.144 28.187H59.0525C52.4964 28.187 47.0736 33.4909 46.9443 40.0526C46.8919 42.725 47.7243 45.3398 49.3121 47.49C50.8999 49.6402 53.154 51.2053 55.7235 51.9415C55.8465 51.9761 55.9583 52.0424 56.0475 52.1338C56.1368 52.2252 56.2005 52.3385 56.2321 52.4622C56.2682 52.5949 56.2689 52.7347 56.2343 52.8677C56.1997 53.0007 56.1309 53.1224 56.0347 53.2206C53.9418 55.3735 51.4439 57.0913 48.6847 58.2752C45.9254 59.459 42.9593 60.0857 39.957 60.119C36.9547 60.1523 33.9754 59.5916 31.1906 58.4693C28.4058 57.3469 25.8703 55.6849 23.7302 53.5791C21.59 51.4732 19.8874 48.9649 18.7202 46.1985C17.5531 43.4322 16.9444 40.4623 16.9293 37.4599C16.9141 34.4574 17.4928 31.4816 18.632 28.7036C19.7712 25.9256 21.4485 23.4003 23.5673 21.2729Z" fill="#CB8734"/>
<path d="M2.90621 16.2163V21.3122C2.9065 21.388 2.91568 21.4636 2.93358 21.5372C0.9048 32.8924 0.272699 40.28 1.82655 53.3945C2.13437 55.9927 2.53082 58.6207 3.00514 61.2049C3.04597 61.4279 3.16367 61.6294 3.33778 61.7745C3.51188 61.9197 3.73136 61.9991 3.95801 61.9991H9.48671C9.71329 61.9991 9.9327 61.9197 10.1068 61.7746C10.2808 61.6296 10.3986 61.4281 10.4395 61.2053C10.9138 58.6208 11.3102 55.9929 11.6181 53.3948C13.2436 39.6741 12.6048 32.073 10.6561 21.2267V16.2163C11.5528 15.5924 12.2854 14.7609 12.7914 13.7928C13.2974 12.8247 13.5619 11.7485 13.5623 10.6561C13.5623 10.5211 13.537 7.32344 11.3411 5.12743C9.86173 3.64817 10.6 1.29463 10.6065 1.27513C10.6579 1.12088 10.6697 0.956158 10.6407 0.796156C10.6117 0.636154 10.5429 0.486017 10.4407 0.359584C10.3384 0.23315 10.206 0.134488 10.0556 0.0726898C9.90521 0.0108918 9.74168 -0.0120534 9.58007 0.00596896C4.64352 0.555727 2.29324 3.43905 1.19106 5.76026C0.468847 7.29552 0.0637474 8.96068 0 10.6561C0.000404052 11.7485 0.264888 12.8247 0.770915 13.7928C1.27694 14.7609 2.00951 15.5924 2.90621 16.2163ZM9.69414 53.1666C9.42265 55.4588 9.08093 57.7744 8.67697 60.0617H4.76788C4.36379 57.7742 4.02207 55.4587 3.7507 53.1666C2.24432 40.4519 2.83258 33.2141 4.76921 22.281H8.87605C10.6902 32.5607 11.255 39.9916 9.69414 53.1666ZM8.71863 20.3435H4.84368V17.1538C6.10767 17.5318 7.45464 17.5318 8.71863 17.1538V20.3435ZM2.9412 6.5912C4.05743 4.24019 5.92249 2.75125 8.49545 2.15184C8.40524 3.37208 8.58833 5.1146 9.97108 6.49735C11.578 8.10436 11.6241 10.5978 11.6248 10.6583C11.6227 11.872 11.1656 13.0408 10.3437 13.9338C9.52175 14.8268 8.39482 15.3791 7.18548 15.4816C6.26215 14.4479 5.84245 13.4771 5.94053 12.5922C6.08257 11.3092 7.29083 10.5114 7.30306 10.5036L6.26421 8.86809C6.1832 8.91919 4.27661 10.1454 4.01783 12.3519C3.92485 13.233 4.08445 14.1224 4.47798 14.9163C3.71037 14.5011 3.06913 13.8863 2.62197 13.1369C2.1748 12.3874 1.93831 11.5311 1.93747 10.6584C2.00019 9.24971 2.34133 7.86736 2.9412 6.5912Z" fill="#CB8734"/>
<path d="M45.5302 27.2184C46.2966 27.2184 47.0458 26.9911 47.683 26.5654C48.3203 26.1396 48.8169 25.5344 49.1102 24.8263C49.4035 24.1183 49.4802 23.3392 49.3307 22.5875C49.1812 21.8358 48.8121 21.1454 48.2702 20.6035C47.7283 20.0615 47.0378 19.6925 46.2862 19.543C45.5345 19.3934 44.7554 19.4702 44.0473 19.7635C43.3393 20.0568 42.7341 20.5534 42.3083 21.1906C41.8825 21.8279 41.6553 22.5771 41.6553 23.3435C41.6564 24.3708 42.0651 25.3557 42.7915 26.0822C43.5179 26.8086 44.5029 27.2172 45.5302 27.2184ZM45.5302 21.406C45.9134 21.406 46.288 21.5196 46.6066 21.7325C46.9252 21.9454 47.1736 22.248 47.3202 22.602C47.4669 22.956 47.5052 23.3456 47.4305 23.7214C47.3557 24.0973 47.1712 24.4425 46.9002 24.7135C46.6293 24.9844 46.284 25.1689 45.9082 25.2437C45.5324 25.3185 45.1428 25.2801 44.7888 25.1334C44.4348 24.9868 44.1322 24.7385 43.9193 24.4199C43.7064 24.1012 43.5927 23.7266 43.5927 23.3435C43.5933 22.8298 43.7976 22.3373 44.1609 21.9741C44.5241 21.6109 45.0165 21.4066 45.5302 21.406Z" fill="#CB8734"/>
<path d="M32.9374 28.1871C33.7038 28.1871 34.453 27.9599 35.0902 27.5341C35.7275 27.1083 36.2241 26.5031 36.5174 25.7951C36.8107 25.087 36.8874 24.3079 36.7379 23.5562C36.5884 22.8046 36.2194 22.1141 35.6774 21.5722C35.1355 21.0303 34.4451 20.6612 33.6934 20.5117C32.9417 20.3622 32.1626 20.4389 31.4546 20.7322C30.7465 21.0255 30.1413 21.5222 29.7155 22.1594C29.2898 22.7966 29.0625 23.5458 29.0625 24.3122C29.0637 25.3395 29.4723 26.3245 30.1987 27.0509C30.9252 27.7774 31.9101 28.186 32.9374 28.1871ZM32.9374 22.3747C33.3206 22.3747 33.6952 22.4884 34.0138 22.7013C34.3325 22.9141 34.5808 23.2167 34.7274 23.5708C34.8741 23.9248 34.9124 24.3144 34.8377 24.6902C34.7629 25.066 34.5784 25.4112 34.3074 25.6822C34.0365 25.9532 33.6913 26.1377 33.3154 26.2124C32.9396 26.2872 32.55 26.2488 32.196 26.1022C31.842 25.9556 31.5394 25.7072 31.3265 25.3886C31.1136 25.07 31 24.6954 31 24.3122C31.0005 23.7985 31.2049 23.3061 31.5681 22.9428C31.9313 22.5796 32.4238 22.3753 32.9374 22.3747Z" fill="#CB8734"/>
<path d="M29.0624 33.0307C29.0624 32.2643 28.8351 31.5151 28.4093 30.8779C27.9836 30.2407 27.3784 29.744 26.6703 29.4507C25.9623 29.1574 25.1831 29.0807 24.4315 29.2302C23.6798 29.3797 22.9894 29.7488 22.4474 30.2907C21.9055 30.8326 21.5365 31.5231 21.387 32.2747C21.2374 33.0264 21.3142 33.8055 21.6075 34.5136C21.9007 35.2216 22.3974 35.8268 23.0346 36.2526C23.6719 36.6784 24.4211 36.9057 25.1874 36.9057C26.2148 36.9045 27.1997 36.4959 27.9262 35.7694C28.6526 35.043 29.0612 34.0581 29.0624 33.0307ZM23.25 33.0307C23.25 32.6475 23.3636 32.2729 23.5765 31.9543C23.7894 31.6357 24.092 31.3874 24.446 31.2407C24.8 31.0941 25.1896 31.0557 25.5654 31.1305C25.9413 31.2052 26.2865 31.3897 26.5574 31.6607C26.8284 31.9317 27.0129 32.2769 27.0877 32.6527C27.1624 33.0286 27.1241 33.4181 26.9774 33.7721C26.8308 34.1262 26.5825 34.4288 26.2638 34.6417C25.9452 34.8546 25.5706 34.9682 25.1874 34.9682C24.6738 34.9676 24.1813 34.7633 23.8181 34.4001C23.4549 34.0368 23.2506 33.5444 23.25 33.0307Z" fill="#CB8734"/>
<path d="M27.1249 47.5619C27.8913 47.5619 28.6405 47.3346 29.2777 46.9089C29.915 46.4831 30.4116 45.8779 30.7049 45.1698C30.9982 44.4618 31.0749 43.6827 30.9254 42.931C30.7759 42.1793 30.4069 41.4889 29.8649 40.947C29.323 40.405 28.6326 40.036 27.8809 39.8865C27.1292 39.737 26.3501 39.8137 25.6421 40.107C24.934 40.4003 24.3288 40.8969 23.903 41.5342C23.4773 42.1714 23.25 42.9206 23.25 43.687C23.2512 44.7143 23.6598 45.6992 24.3862 46.4257C25.1127 47.1521 26.0976 47.5607 27.1249 47.5619ZM27.1249 41.7495C27.5081 41.7495 27.8827 41.8631 28.2013 42.076C28.52 42.2889 28.7683 42.5915 28.9149 42.9455C29.0616 43.2995 29.0999 43.6891 29.0252 44.0649C28.9504 44.4408 28.7659 44.786 28.4949 45.057C28.224 45.3279 27.8788 45.5124 27.5029 45.5872C27.1271 45.662 26.7375 45.6236 26.3835 45.4769C26.0295 45.3303 25.7269 45.082 25.514 44.7634C25.3011 44.4447 25.1875 44.0702 25.1875 43.687C25.188 43.1733 25.3924 42.6808 25.7556 42.3176C26.1188 41.9544 26.6113 41.7501 27.1249 41.7495Z" fill="#CB8734"/>
<path d="M34.8749 47.562C34.1086 47.562 33.3594 47.7893 32.7221 48.2151C32.0849 48.6408 31.5882 49.246 31.295 49.9541C31.0017 50.6621 30.9249 51.4413 31.0745 52.1929C31.224 52.9446 31.593 53.635 32.1349 54.177C32.6769 54.7189 33.3673 55.0879 34.119 55.2374C34.8706 55.387 35.6498 55.3102 36.3578 55.0169C37.0659 54.7237 37.6711 54.227 38.0968 53.5898C38.5226 52.9525 38.7499 52.2033 38.7499 51.437C38.7487 50.4096 38.3401 49.4247 37.6137 48.6982C36.8872 47.9718 35.9023 47.5632 34.8749 47.562ZM34.8749 53.3744C34.4918 53.3744 34.1172 53.2608 33.7985 53.0479C33.4799 52.835 33.2316 52.5324 33.085 52.1784C32.9383 51.8244 32.8999 51.4348 32.9747 51.059C33.0495 50.6831 33.234 50.3379 33.5049 50.067C33.7759 49.796 34.1211 49.6115 34.497 49.5367C34.8728 49.462 35.2624 49.5003 35.6164 49.647C35.9704 49.7936 36.273 50.0419 36.4859 50.3606C36.6988 50.6792 36.8124 51.0538 36.8124 51.437C36.8118 51.9506 36.6075 52.4431 36.2443 52.8063C35.8811 53.1695 35.3886 53.3739 34.8749 53.3744Z" fill="#CB8734"/>
<path d="M41.6553 53.3745C41.6553 54.1408 41.8825 54.89 42.3083 55.5273C42.7341 56.1645 43.3393 56.6612 44.0473 56.9544C44.7554 57.2477 45.5345 57.3245 46.2862 57.1749C47.0378 57.0254 47.7283 56.6564 48.2702 56.1145C48.8121 55.5725 49.1812 54.8821 49.3307 54.1304C49.4802 53.3788 49.4035 52.5996 49.1102 51.8916C48.8169 51.1835 48.3203 50.5783 47.683 50.1526C47.0458 49.7268 46.2966 49.4995 45.5302 49.4995C44.5029 49.5007 43.5179 49.9093 42.7915 50.6357C42.0651 51.3622 41.6564 52.3471 41.6553 53.3745ZM47.4677 53.3745C47.4677 53.7577 47.3541 54.1322 47.1412 54.4509C46.9283 54.7695 46.6257 55.0178 46.2717 55.1644C45.9176 55.3111 45.5281 55.3495 45.1522 55.2747C44.7764 55.1999 44.4312 55.0154 44.1602 54.7445C43.8893 54.4735 43.7047 54.1283 43.63 53.7524C43.5552 53.3766 43.5936 52.987 43.7402 52.633C43.8869 52.279 44.1352 51.9764 44.4538 51.7635C44.7724 51.5506 45.147 51.437 45.5302 51.437C46.0439 51.4376 46.5364 51.6419 46.8996 52.0051C47.2628 52.3683 47.4671 52.8608 47.4677 53.3745Z" fill="#CB8734"/>
<path d="M33.9062 35.9369C33.9062 37.0865 34.2471 38.2103 34.8858 39.1661C35.5245 40.122 36.4323 40.867 37.4944 41.3069C38.5564 41.7468 39.7251 41.8619 40.8526 41.6377C41.9801 41.4134 43.0158 40.8598 43.8287 40.0469C44.6415 39.234 45.1951 38.1984 45.4194 37.0709C45.6437 35.9434 45.5286 34.7747 45.0886 33.7126C44.6487 32.6505 43.9037 31.7428 42.9479 31.1041C41.992 30.4654 40.8683 30.1245 39.7187 30.1245C38.1776 30.1262 36.7002 30.7392 35.6106 31.8288C34.5209 32.9185 33.908 34.3959 33.9062 35.9369ZM39.7187 32.062C40.4851 32.062 41.2342 32.2892 41.8715 32.715C42.5087 33.1408 43.0054 33.746 43.2986 34.4541C43.5919 35.1621 43.6687 35.9412 43.5192 36.6929C43.3696 37.4446 43.0006 38.135 42.4587 38.6769C41.9167 39.2188 41.2263 39.5879 40.4746 39.7374C39.723 39.8869 38.9438 39.8102 38.2358 39.5169C37.5277 39.2236 36.9226 38.727 36.4968 38.0897C36.071 37.4525 35.8437 36.7033 35.8437 35.9369C35.8449 34.9096 36.2535 33.9246 36.9799 33.1982C37.7064 32.4718 38.6913 32.0631 39.7187 32.062Z" fill="#CB8734"/>
<path d="M16.3213 8.44082L19.1007 9.96089L20.6209 12.7403C20.7044 12.8928 20.8273 13.0201 20.9768 13.1087C21.1263 13.1974 21.297 13.2441 21.4708 13.2441C21.6446 13.2441 21.8153 13.1974 21.9648 13.1087C22.1143 13.0201 22.2373 12.8928 22.3207 12.7403L23.8409 9.96089L26.6203 8.44082C26.7728 8.35741 26.9001 8.23448 26.9888 8.08493C27.0775 7.93539 27.1242 7.76474 27.1242 7.59088C27.1242 7.41703 27.0775 7.24637 26.9888 7.09683C26.9001 6.94728 26.7728 6.82435 26.6203 6.74093L23.8409 5.22075L22.3207 2.44132C22.2373 2.28881 22.1143 2.16157 21.9648 2.07292C21.8153 1.98428 21.6446 1.9375 21.4708 1.9375C21.297 1.9375 21.1263 1.98428 20.9768 2.07292C20.8273 2.16157 20.7044 2.28881 20.6209 2.44132L19.1007 5.22075L16.3213 6.74081C16.1688 6.82423 16.0415 6.94716 15.9528 7.09671C15.8642 7.24625 15.8174 7.4169 15.8174 7.59076C15.8174 7.76461 15.8642 7.93527 15.9528 8.08481C16.0415 8.23436 16.1688 8.35729 16.3213 8.4407V8.44082ZM20.2794 6.78453C20.442 6.69563 20.5756 6.56199 20.6645 6.39946L21.4709 4.92516L22.2772 6.39946C22.3661 6.56199 22.4998 6.69563 22.6623 6.78453L24.1366 7.59088L22.6623 8.39711C22.4998 8.48601 22.3661 8.61965 22.2772 8.78218L21.4708 10.2565L20.6644 8.78218C20.5755 8.61965 20.4419 8.48601 20.2793 8.39711L18.8052 7.59088L20.2794 6.78453Z" fill="#CB8734"/>
</svg>
