<svg width="62" height="62" viewBox="0 0 62 62" fill="none" xmlns="http://www.w3.org/2000/svg">
<rect opacity="0.58" width="62" height="62" fill="white"/>
<path d="M55.3868 10.0509C55.3868 10.6783 54.8782 11.1869 54.2508 11.1869C53.6234 11.1869 53.1149 10.6783 53.1149 10.0509V3.63287C53.1149 2.92372 52.538 2.34691 51.8289 2.34691H3.63287C2.92372 2.34691 2.34691 2.92372 2.34691 3.63287V58.3681C2.34691 59.0772 2.92372 59.654 3.63287 59.654H51.8289C52.538 59.654 53.1149 59.0772 53.1149 58.3681V54.9774C53.1149 54.35 53.6234 53.8414 54.2508 53.8414C54.8782 53.8414 55.3868 54.35 55.3868 54.9774V58.3681C55.3868 60.3298 53.7906 61.9259 51.8289 61.9259H3.63287C1.67113 61.9259 0.075 60.3298 0.075 58.3681V3.63287C0.075 1.67113 1.67113 0.075 3.63287 0.075H51.8289C53.7906 0.075 55.3868 1.67113 55.3868 3.63287V10.0509Z" fill="#CB8734" stroke="white" stroke-width="0.15"/>
<path d="M8.23343 8.15941H8.15843V8.23441V32.3324C8.15843 32.9598 7.64987 33.4684 7.02248 33.4684C6.39509 33.4684 5.88652 32.9598 5.88652 32.3324V7.02346C5.88652 6.39607 6.39509 5.8875 7.02248 5.8875H48.4386C49.066 5.8875 49.5746 6.39607 49.5746 7.02346V10.1719C49.5746 10.7993 49.066 11.3079 48.4386 11.3079C47.8113 11.3079 47.3027 10.7993 47.3027 10.1719V8.23441V8.15941H47.2277H8.23343Z" fill="#CB8734" stroke="white" stroke-width="0.15"/>
<path d="M47.2277 53.8413H47.3027V53.7663V52.3132C47.3027 51.6858 47.8112 51.1772 48.4386 51.1772C49.066 51.1772 49.5746 51.6858 49.5746 52.3132V54.9773C49.5746 55.6047 49.066 56.1132 48.4386 56.1132H7.02248C6.39509 56.1132 5.88652 55.6047 5.88652 54.9773V41.4751C5.88652 40.8477 6.39509 40.3392 7.02248 40.3392C7.64987 40.3392 8.15843 40.8477 8.15843 41.4751V53.7663V53.8413H8.23343H47.2277Z" fill="#CB8734" stroke="white" stroke-width="0.15"/>
<path d="M33.3692 45.2337L33.4222 45.2868L33.4753 45.2337L35.8686 42.8403C35.8686 42.8403 35.8686 42.8403 35.8686 42.8403C36.3123 42.3967 37.0315 42.3967 37.475 42.8404C37.9186 43.2841 37.9186 44.0034 37.475 44.447L35.0725 46.8495C34.6176 47.3045 34.0201 47.532 33.4222 47.532C32.8244 47.532 32.2269 47.3045 31.7719 46.8495L30.2843 45.3618L30.2312 45.3087L30.1782 45.3618L29.2194 46.3206C29.2194 46.3206 29.2194 46.3206 29.2194 46.3206C28.7756 46.7642 28.0564 46.7642 27.6128 46.3206C27.1692 45.8769 27.1692 45.1576 27.6128 44.714L28.5808 43.746C28.5808 43.746 28.5808 43.746 28.5808 43.746C29.4909 42.836 30.9715 42.836 31.8815 43.746C31.8815 43.746 31.8815 43.746 31.8815 43.746L33.3692 45.2337Z" fill="#CB8734" stroke="white" stroke-width="0.15"/>
<path d="M42.5068 15.7359L42.5067 15.7359C41.5395 15.6908 40.5928 16.0577 39.9085 16.742C39.2241 17.4264 38.8574 18.3735 38.9023 19.3402C38.9237 19.7979 38.6745 20.2292 38.2676 20.4396L38.2332 20.373L38.2676 20.4396C37.408 20.884 36.7711 21.6751 36.5206 22.61L36.4481 22.5906L36.5206 22.61C36.401 23.0558 36.375 23.5174 36.4363 23.9669L36.448 24.052H36.362H15.2308C14.6035 24.052 14.0949 24.5606 14.0949 25.188C14.0949 25.8154 14.6035 26.3239 15.2308 26.3239H36.9807H37.0906L37.0505 26.4263C37.0235 26.4954 36.9912 26.5656 36.9482 26.6327M42.5068 15.7359L38.7551 32.2115C38.8078 32.3499 38.8342 32.4992 38.827 32.6522C38.7812 33.6401 39.1558 34.6076 39.8552 35.3069C40.5544 36.0062 41.5215 36.3815 42.5098 36.3349M42.5068 15.7359C42.9631 15.7566 43.3956 15.5083 43.606 15.1012C44.0504 14.2416 44.8416 13.6047 45.7764 13.3542C46.7113 13.1036 47.7148 13.2595 48.5295 13.7819C48.9151 14.0291 49.4132 14.0293 49.7988 13.7819C50.6135 13.2596 51.6168 13.1035 52.552 13.3542C53.4868 13.6047 54.278 14.2416 54.7224 15.1012C54.9326 15.5079 55.3618 15.7581 55.8217 15.7359C56.7889 15.6904 57.7356 16.0577 58.4199 16.742C59.1042 17.4264 59.471 18.3735 59.4261 19.3403C59.4047 19.7979 59.6537 20.2292 60.0607 20.4396C60.9205 20.884 61.5573 21.6752 61.8078 22.61C62.0583 23.5448 61.9024 24.5485 61.3801 25.3633C61.1327 25.7489 61.1327 26.247 61.3801 26.6324C61.9024 27.4473 62.0583 28.4509 61.8078 29.3858C61.5573 30.3208 60.9204 31.1118 60.0607 31.5562C59.6539 31.7666 59.4047 32.1979 59.426 32.6555C59.471 33.6224 59.1042 34.5694 58.4198 35.2538C57.7355 35.9382 56.7895 36.3056 55.8218 36.2599L55.8216 36.2599C55.3647 36.2391 54.9328 36.4875 54.7224 36.8946C54.5801 37.1699 54.4018 37.4221 54.1949 37.6464L54.175 37.6679V37.6973V49.0067C54.175 49.4657 53.8989 49.8795 53.4752 50.0557C53.3341 50.1143 53.186 50.1428 53.0393 50.1428C52.7446 50.1428 52.4551 50.0282 52.2379 49.8121L49.2169 46.8069L49.164 46.7543M42.5068 15.7359L49.164 46.7543M36.9482 26.6327L36.885 26.5922L36.9482 26.6327C36.9482 26.6327 36.9482 26.6327 36.9482 26.6327ZM36.9482 26.6327C36.4259 27.4475 36.2699 28.4511 36.5204 29.3859L36.5205 29.386C36.5547 29.514 36.597 29.6394 36.6457 29.7619L36.6865 29.8646H36.576H15.2305C14.6031 29.8646 14.0945 30.3732 14.0945 31.0005C14.0945 31.6279 14.6031 32.1365 15.2305 32.1365H38.7551H38.8068L38.8252 32.1848C38.8813 32.3322 38.9096 32.4918 38.902 32.6557C38.8571 33.6225 39.2238 34.5695 39.9082 35.2539C40.5925 35.9382 41.5391 36.3056 42.5061 36.26M42.5061 36.26L42.5098 36.3349M42.5061 36.26C42.9635 36.2376 43.3953 36.4878 43.6056 36.8947C43.7479 37.17 43.9262 37.4221 44.1331 37.6465L44.153 37.6681V37.6974V49.0069C44.153 49.4658 44.4291 49.8796 44.8529 50.0558L44.8241 50.125M42.5061 36.26C42.5062 36.26 42.5062 36.26 42.5063 36.26L42.5098 36.3349M42.5098 36.3349L44.8241 50.125M44.8241 50.125L44.8529 50.0558C45.2764 50.232 45.7647 50.1359 46.0901 49.8121L49.1111 46.8069L49.164 46.7543M44.8241 50.125L49.164 46.7543M51.7752 46.1473L51.9031 46.2745V46.0941V38.8284V38.7497L51.8245 38.7535L51.8179 38.7538C51.7644 38.7564 51.7131 38.7589 51.6618 38.7589C51.0072 38.7589 50.3584 38.5729 49.7987 38.214C49.4132 37.9668 48.9151 37.9667 48.5294 38.214C47.9233 38.6025 47.2126 38.7879 46.5034 38.7545L46.4249 38.7508V38.8294V46.0941V46.2745L46.5528 46.1473L48.3628 44.3466C48.806 43.9058 49.5219 43.9058 49.9651 44.3466L51.7752 46.1473ZM51.9444 36.375L51.9638 36.4475C52.2871 36.3609 52.5505 36.149 52.7041 35.8516C53.3207 34.6588 54.5852 33.9286 55.9272 33.9907C56.2615 34.006 56.5767 33.8842 56.8134 33.6476L56.7603 33.5945L56.8134 33.6476C57.05 33.4108 57.1722 33.0957 57.1565 32.7613C57.0941 31.42 57.8247 30.1548 59.0174 29.5382C59.3146 29.3846 59.5267 29.1212 59.6133 28.798C59.7 28.4746 59.648 28.1406 59.4674 27.8588C58.7427 26.7285 58.7427 25.2675 59.4673 24.1371C59.648 23.8555 59.6998 23.5214 59.6133 23.1981C59.5267 22.8747 59.3148 22.6115 59.0175 22.4578L58.983 22.5245L59.0175 22.4578C57.8246 21.8412 57.0942 20.5759 57.1565 19.2348C57.1722 18.9004 57.0501 18.5853 56.8134 18.3485C56.5767 18.1117 56.2617 17.9901 55.9273 18.0053L55.9272 18.0053C54.5858 18.0679 53.3208 17.3372 52.7041 16.1445L52.6375 16.1789L52.7041 16.1445C52.5503 15.8472 52.2872 15.6352 51.9638 15.5486C51.6404 15.4619 51.3065 15.514 51.0247 15.6945L51.0652 15.7576L51.0247 15.6945C49.8946 16.4193 48.4335 16.4193 47.3031 15.6945C47.0214 15.5138 46.6873 15.4621 46.3642 15.5486L46.3835 15.621L46.3641 15.5486C46.0408 15.6352 45.7774 15.8471 45.6238 16.1445C45.0073 17.3373 43.7428 18.0676 42.4007 18.0053L42.4006 18.0053C42.067 17.99 41.7512 18.1117 41.5145 18.3485C41.2779 18.5853 41.1557 18.9004 41.1714 19.2348C41.2337 20.576 40.5032 21.8412 39.3105 22.4578C39.0133 22.6115 38.8012 22.8748 38.7146 23.1981L38.7871 23.2175L38.7146 23.1981C38.628 23.5215 38.68 23.8555 38.8605 24.1372L38.8605 24.1372C39.5852 25.2676 39.5852 26.7286 38.8606 27.8589C38.6798 28.1406 38.6281 28.4746 38.7146 28.798C38.8012 29.1213 39.0131 29.3845 39.3104 29.5382C39.6358 29.7065 39.9256 29.9245 40.1758 30.1782L40.1775 30.1798C40.196 30.1975 40.214 30.2164 40.2323 30.2365L40.2331 30.2373C40.863 30.907 41.2152 31.8148 41.1713 32.7612C41.1556 33.0956 41.2776 33.4108 41.5144 33.6476C41.7511 33.8842 42.067 34.0061 42.4005 33.9907L42.4006 33.9907C43.7428 33.928 45.007 34.6589 45.6236 35.8516L45.6236 35.8516C45.7774 36.1488 46.0406 36.3609 46.364 36.4475L46.3834 36.375L46.364 36.4475C46.6872 36.5339 47.0213 36.4821 47.303 36.3016L47.2626 36.2384L47.303 36.3016C47.8681 35.9393 48.516 35.7581 49.1639 35.7581C49.812 35.7581 50.4596 35.9392 51.0248 36.3015C51.3065 36.4823 51.6407 36.5339 51.9638 36.4475L51.9444 36.375Z" fill="#CB8734" stroke="white" stroke-width="0.15"/>
<path d="M49.1387 26.7762L49.1918 26.8293L49.2448 26.7762L53.2641 22.7568C53.7077 22.3132 54.427 22.3132 54.8705 22.7568C55.3141 23.2005 55.3141 23.9198 54.8705 24.3634L49.9949 29.2391L49.9949 29.2391C49.7731 29.4609 49.4825 29.5718 49.1916 29.5718C48.9008 29.5718 48.6103 29.4609 48.3884 29.2391L45.9321 26.7828C45.4885 26.3391 45.4885 25.6198 45.9321 25.1762C46.3758 24.7326 47.0951 24.7326 47.5387 25.1762L49.1387 26.7762Z" fill="#CB8734" stroke="white" stroke-width="0.15"/>
<path d="M22.8281 35.6771H36.672C37.2994 35.6771 37.8079 36.1856 37.8079 36.813C37.8079 37.4404 37.2993 37.949 36.6719 37.949H22.8281C22.2008 37.949 21.6922 37.4404 21.6922 36.813C21.6922 36.1856 22.2008 35.6771 22.8281 35.6771Z" fill="#CB8734" stroke="white" stroke-width="0.15"/>
</svg>
