<svg width="62" height="62" viewBox="0 0 62 62" fill="none" xmlns="http://www.w3.org/2000/svg">
<path d="M57.8667 8.2666V10.3333C59.008 10.3333 59.9333 11.2586 59.9333 12.3999V43.3999H2.06667V12.3999C2.06667 11.2586 2.99202 10.3333 4.13333 10.3333V8.2666C1.85072 8.2666 0 10.1173 0 12.3999V47.5333C0 49.8159 1.85072 51.6666 4.13333 51.6666H24.4443L21.9644 59.9333H19.6333V61.9999H42.3667V59.9333H40.0356L37.5557 51.6666H57.8667C60.1493 51.6666 62 49.8159 62 47.5333V12.3999C62 10.1173 60.1493 8.2666 57.8667 8.2666ZM37.8776 59.9333H24.1224L26.6023 51.6666H35.3977L37.8776 59.9333ZM59.9333 47.5333C59.9333 48.6746 59.008 49.5999 57.8667 49.5999H4.13333C2.99202 49.5999 2.06667 48.6746 2.06667 47.5333V45.4666H59.9333V47.5333Z" fill="#CB8734"/>
<path d="M8.26686 4.13333C8.26686 2.99202 9.19222 2.06667 10.3335 2.06667H51.6669C52.8082 2.06667 53.7335 2.99202 53.7335 4.13333V41.3333H55.8002V4.13333C55.8002 1.85072 53.9495 0 51.6669 0H10.3335C8.05091 0 6.2002 1.85072 6.2002 4.13333V41.3333H8.26686V4.13333Z" fill="#CB8734"/>
<path d="M16.1706 34.035L32.7039 40.235C32.7155 40.235 32.7286 40.235 32.7402 40.2411C32.8452 40.2779 32.9552 40.2981 33.0667 40.3001C33.2095 40.2971 33.3502 40.2643 33.4799 40.2042C33.4965 40.1967 33.5162 40.2042 33.5329 40.1916L45.9329 33.9916C46.2815 33.8155 46.501 33.4573 46.5 33.0668V20.6668C46.4985 20.5971 46.4894 20.528 46.4733 20.4599C46.4733 20.4488 46.4733 20.4362 46.4733 20.4251C46.4384 20.2924 46.3779 20.1683 46.2951 20.0593C46.2871 20.0487 46.2861 20.0346 46.278 20.023L38.0113 9.68963C37.7071 9.30919 37.1783 9.19264 36.7424 9.41061L16.0757 19.7439C15.724 19.9175 15.5015 20.2747 15.5 20.6668V33.0668C15.4995 33.4977 15.7669 33.8837 16.1706 34.035ZM22.7767 34.2419V28.1852L24.8434 28.9602V35.0209L22.7767 34.2419ZM44.4333 32.428L34.1 37.5947V27.5055L44.4333 22.3389V32.428ZM36.9149 11.6312L43.8607 20.3111L33.3517 25.566L26.406 16.8856L36.9149 11.6312ZM17.5667 21.3055L24.5149 17.8312L32.0333 27.2296V37.7758L26.9101 35.857V28.2442C26.9101 27.8133 26.6426 27.4284 26.2395 27.277L22.1062 25.727C21.7888 25.6079 21.4336 25.6523 21.1551 25.8451C20.8766 26.0383 20.7101 26.3552 20.7101 26.6942V33.53L17.5667 32.3508V21.3055Z" fill="#CB8734"/>
<path d="M10.333 37.2V40.3C10.333 40.8706 10.7957 41.3333 11.3663 41.3333H14.4663V39.2666H12.3997V37.2H10.333Z" fill="#CB8734"/>
<path d="M14.4663 8.2666H11.3663C10.7957 8.2666 10.333 8.72928 10.333 9.29993V12.3999H12.3997V10.3333H14.4663V8.2666Z" fill="#CB8734"/>
<path d="M49.5999 39.2666H47.5332V41.3333H50.6332C51.2039 41.3333 51.6665 40.8706 51.6665 40.3V37.2H49.5999V39.2666Z" fill="#CB8734"/>
<path d="M51.6665 9.29993C51.6665 8.72928 51.2039 8.2666 50.6332 8.2666H47.5332V10.3333H49.5999V12.3999H51.6665V9.29993Z" fill="#CB8734"/>
</svg>
